<?xml version="1.0" standalone="no"?>
<!DOCTYPE svg PUBLIC "-//W3C//DTD SVG 20010904//EN"
 "http://www.w3.org/TR/2001/REC-SVG-20010904/DTD/svg10.dtd">
<svg version="1.0" xmlns="http://www.w3.org/2000/svg"
 width="1600.000000pt" height="1552.000000pt" viewBox="0 0 1600.000000 1552.000000"
 preserveAspectRatio="xMidYMid meet">

<g transform="translate(0.000000,1552.000000) scale(0.100000,-0.100000)"
fill="#000000" stroke="none">
<path d="M7740 14309 c-69 -4 -138 -10 -155 -14 -16 -3 -113 -10 -215 -15
-233 -11 -541 -40 -557 -53 -18 -13 -17 -147 2 -288 9 -63 20 -206 25 -319 5
-113 14 -239 20 -281 6 -42 14 -152 18 -243 6 -125 11 -169 21 -176 14 -8 246
-4 328 6 26 3 46 12 52 22 10 21 -4 413 -19 502 -14 86 -33 491 -23 501 5 4
67 12 138 18 105 8 133 8 143 -3 21 -21 39 -190 46 -423 4 -117 11 -235 16
-262 5 -28 12 -106 16 -173 4 -68 11 -129 17 -135 19 -25 342 -8 374 19 14 11
15 35 9 193 -4 99 -11 207 -16 240 -5 33 -14 160 -19 282 -6 123 -18 280 -26
350 -8 71 -15 153 -15 184 0 56 -12 80 -39 78 -9 -1 -72 -5 -141 -10z"/>
<path d="M8785 14242 c-18 -12 -44 -59 -130 -226 -45 -89 -128 -251 -185 -361
-236 -460 -312 -616 -306 -630 3 -8 15 -16 28 -19 13 -2 71 -14 129 -26 58
-12 115 -19 127 -16 11 4 31 30 47 64 15 31 31 64 36 72 5 8 14 26 20 40 6 14
14 32 19 40 10 22 66 24 135 6 33 -9 93 -20 134 -25 107 -14 115 -24 121 -161
4 -79 9 -114 20 -124 8 -9 49 -20 90 -26 41 -7 116 -21 166 -32 123 -27 134
-21 127 64 -2 35 -9 95 -14 133 -5 39 -14 115 -20 170 -6 55 -19 152 -30 215
-10 64 -19 136 -19 160 0 25 -9 101 -20 170 -10 69 -24 166 -29 215 -6 50 -17
124 -24 165 -14 84 -8 79 -132 100 -38 7 -106 18 -150 25 -92 16 -126 18 -140
7z m102 -454 c10 -12 16 -68 29 -248 7 -103 3 -107 -88 -90 -83 15 -108 25
-108 43 0 7 27 68 60 135 33 68 60 128 60 135 0 14 19 37 31 37 4 0 11 -6 16
-12z"/>
<path d="M6045 14059 c-44 -16 -93 -36 -110 -43 -16 -8 -57 -24 -90 -36 -90
-33 -139 -53 -152 -63 -18 -13 -17 -137 2 -234 8 -43 20 -151 25 -239 5 -89
13 -169 16 -178 3 -9 3 -23 0 -31 -11 -28 -40 0 -132 126 -49 66 -114 153
-144 192 -31 40 -66 88 -79 107 -39 57 -84 100 -104 100 -10 0 -39 -9 -65 -19
-26 -11 -78 -31 -117 -46 -38 -14 -108 -41 -155 -60 -47 -18 -95 -36 -107 -40
-32 -9 -38 -40 -14 -79 12 -18 21 -42 21 -52 0 -11 9 -36 20 -57 11 -20 20
-43 20 -50 0 -7 9 -29 20 -50 11 -20 20 -44 20 -52 0 -8 9 -34 19 -57 22 -49
48 -116 81 -203 13 -33 31 -79 41 -102 11 -23 19 -47 19 -53 0 -7 7 -26 15
-43 8 -18 21 -51 30 -74 8 -24 22 -62 30 -85 9 -24 22 -57 30 -75 8 -17 15
-35 15 -40 1 -4 9 -26 20 -48 11 -22 19 -46 20 -53 0 -21 28 -69 44 -75 8 -3
45 6 83 19 37 14 84 30 103 36 51 15 93 47 87 67 -3 9 -20 52 -37 96 -17 44
-36 96 -42 115 -6 19 -17 44 -24 55 -8 11 -14 28 -14 38 0 11 -8 36 -19 56
-10 20 -28 62 -40 94 -11 31 -31 83 -42 115 -33 89 -59 154 -75 185 -15 31
-19 67 -6 67 8 -1 61 -67 132 -165 28 -38 80 -110 117 -160 36 -49 76 -105 89
-125 13 -19 42 -60 64 -90 23 -30 51 -71 64 -90 13 -19 41 -54 62 -77 l39 -43
56 19 c31 10 65 23 75 28 10 6 33 16 49 24 29 14 30 17 33 92 2 48 -5 121 -18
189 -11 62 -20 144 -20 183 -1 38 -7 99 -15 135 -8 36 -18 125 -21 199 -9 177
4 172 76 -30 30 -85 61 -164 68 -176 6 -12 12 -28 12 -35 0 -7 6 -25 14 -39 7
-14 28 -68 46 -120 17 -52 38 -104 46 -116 8 -12 14 -28 14 -34 0 -7 9 -30 19
-53 11 -23 22 -49 25 -58 7 -22 53 -23 80 -3 11 8 27 15 36 15 8 0 32 9 53 20
20 11 42 20 48 20 10 0 60 21 119 50 23 11 23 54 1 96 -12 21 -21 45 -21 52 0
8 -6 28 -14 45 -23 52 -62 148 -85 212 -12 33 -31 79 -42 103 -10 23 -19 48
-19 55 0 7 -9 29 -20 50 -11 20 -20 45 -20 54 0 9 -8 35 -18 57 -10 23 -27 59
-37 81 -10 22 -21 54 -25 70 -5 17 -17 53 -29 80 -51 127 -91 231 -91 241 0
17 -35 44 -56 43 -10 0 -55 -13 -99 -30z"/>
<path d="M10040 13925 c-11 -25 -36 -80 -56 -123 -20 -42 -45 -97 -56 -122
-24 -55 -36 -81 -88 -193 -22 -48 -40 -89 -40 -92 0 -2 -15 -37 -34 -77 -19
-40 -64 -143 -101 -228 -37 -85 -76 -171 -86 -191 -10 -20 -19 -43 -19 -52 0
-8 -7 -20 -15 -27 -9 -7 -15 -22 -13 -32 3 -20 38 -41 158 -97 194 -89 203
-90 231 -23 11 26 43 97 71 157 62 134 83 182 97 218 17 43 36 40 191 -30 54
-25 100 -59 100 -74 0 -4 -20 -50 -44 -101 -24 -51 -55 -122 -70 -158 -15 -36
-36 -82 -47 -102 -22 -42 -25 -101 -6 -115 6 -6 81 -40 165 -77 118 -53 156
-65 166 -57 8 6 35 60 61 119 26 59 60 132 75 164 16 31 31 67 35 80 4 12 25
61 47 108 22 47 46 99 53 115 7 17 43 94 79 173 36 78 66 148 66 155 0 7 4 17
9 23 15 15 111 236 111 255 0 19 -46 44 -222 119 -53 23 -107 40 -119 38 -26
-4 -45 -37 -162 -298 -36 -81 -56 -115 -70 -124 -13 -8 -79 17 -191 74 -75 38
-76 43 -26 157 66 152 109 245 125 276 32 60 29 62 -186 156 -149 65 -164 65
-189 6z"/>
<path d="M11513 13132 c-110 -135 -275 -343 -342 -432 -92 -120 -286 -370
-348 -449 -29 -36 -53 -70 -53 -74 0 -13 52 -60 157 -140 52 -40 105 -81 119
-91 l24 -20 38 36 c20 20 47 39 59 42 11 4 27 13 33 21 7 8 19 15 27 15 8 0
40 12 71 26 55 26 95 44 232 106 36 16 88 40 116 53 94 46 96 34 12 -67 -67
-80 -171 -213 -268 -341 -32 -43 -57 -84 -54 -91 3 -7 53 -50 112 -94 59 -45
122 -94 139 -108 56 -45 62 -40 254 212 45 60 134 174 198 254 63 80 133 169
155 198 23 29 64 80 91 114 97 118 165 213 165 230 0 23 -270 238 -299 238 -6
0 -28 -17 -50 -39 -21 -21 -55 -44 -75 -51 -20 -6 -66 -27 -102 -46 -36 -19
-72 -34 -80 -34 -8 0 -32 -9 -52 -20 -20 -10 -59 -29 -87 -41 -101 -44 -160
-73 -167 -83 -5 -7 -11 -7 -19 1 -9 9 -8 15 2 27 8 8 28 34 46 58 17 24 68 89
111 144 125 158 212 276 212 285 0 23 -272 239 -300 238 -8 0 -43 -35 -77 -77z"/>
<path d="M4090 12999 c-167 -21 -354 -142 -456 -296 -148 -222 -138 -465 31
-718 30 -44 84 -110 122 -147 64 -62 202 -158 229 -158 6 0 31 -9 55 -20 37
-16 66 -20 174 -20 108 0 137 4 174 20 24 11 48 20 55 20 26 0 166 103 239
175 63 63 86 94 123 171 l46 95 -1 124 c-1 159 0 154 -66 300 -74 164 -271
363 -406 410 -23 9 -47 20 -54 25 -9 8 -179 33 -195 29 -3 -1 -34 -5 -70 -10z
m46 -345 c45 -20 84 -52 162 -130 56 -57 102 -108 102 -114 0 -6 16 -33 36
-61 43 -62 88 -190 80 -230 -10 -49 -55 -106 -102 -128 -54 -26 -60 -26 -127
-1 -63 24 -144 93 -228 196 -109 133 -159 235 -159 324 0 46 35 107 78 133 70
45 81 45 158 11z"/>
<path d="M7800 12280 c-127 -7 -247 -26 -377 -61 -40 -10 -79 -19 -86 -19 -23
0 -269 -83 -350 -119 -335 -146 -610 -332 -858 -582 -148 -150 -294 -336 -390
-498 -65 -108 -161 -297 -174 -341 -4 -14 -13 -38 -21 -55 -33 -74 -78 -215
-100 -315 -8 -36 -21 -83 -29 -105 -7 -22 -16 -72 -19 -112 -3 -40 -13 -98
-21 -130 -18 -68 -21 -518 -4 -593 5 -25 15 -83 20 -130 6 -47 19 -113 30
-148 10 -34 19 -72 19 -85 0 -27 36 -147 62 -203 10 -22 18 -49 18 -60 0 -11
18 -57 40 -103 22 -45 40 -88 40 -94 0 -14 102 -202 162 -297 195 -311 475
-598 778 -799 149 -99 337 -200 460 -247 36 -14 81 -32 100 -41 19 -9 51 -19
70 -24 19 -4 55 -14 80 -23 96 -32 187 -55 245 -61 33 -3 69 -12 81 -20 26
-17 42 -91 50 -230 6 -113 -1 -141 -91 -350 -25 -60 -51 -124 -56 -142 -17
-57 -60 -123 -164 -249 -83 -101 -108 -139 -129 -197 -14 -40 -26 -79 -26 -87
0 -8 -10 -46 -22 -83 -25 -77 -71 -126 -217 -232 -118 -85 -182 -161 -225
-269 -55 -135 -67 -150 -140 -180 -46 -18 -97 -28 -184 -35 -66 -6 -133 -16
-147 -21 -15 -6 -48 -15 -74 -21 -42 -9 -94 -41 -281 -170 -25 -17 -63 -48
-85 -68 -102 -95 -240 -197 -281 -207 -16 -4 -38 -13 -49 -20 -11 -8 -31 -14
-45 -14 -14 -1 -43 -8 -65 -16 -22 -9 -62 -20 -90 -26 -27 -5 -61 -15 -75 -22
-14 -7 -44 -16 -66 -20 -23 -3 -54 -13 -70 -21 -16 -8 -36 -15 -44 -15 -23 0
-131 -59 -164 -89 -30 -28 -116 -152 -116 -168 0 -46 118 -63 275 -38 126 19
173 41 275 130 97 84 100 85 293 95 166 9 228 20 292 53 45 24 123 48 185 57
71 11 121 32 305 124 l149 76 196 0 196 0 45 29 c25 15 68 55 95 87 66 80 191
201 296 287 87 73 387 316 484 394 55 44 120 77 134 68 16 -10 245 -20 435
-19 170 0 196 3 250 22 33 12 70 33 83 47 28 31 38 31 56 3 16 -25 12 -52 -24
-178 -11 -36 -24 -92 -29 -125 -21 -119 -30 -152 -53 -196 -52 -96 -96 -162
-220 -325 -132 -174 -163 -236 -155 -313 3 -30 14 -66 25 -80 18 -24 27 -26
123 -32 189 -12 621 -9 659 4 73 25 39 79 -100 155 -47 26 -93 52 -102 57
-159 92 -180 113 -162 160 5 13 47 64 94 112 254 263 333 348 411 443 82 101
169 233 169 258 0 22 54 88 109 132 166 135 201 219 145 353 -37 87 -58 113
-117 143 -62 33 -57 32 -682 38 -455 4 -534 11 -572 49 -13 13 -11 17 19 39
18 14 87 56 153 94 146 83 201 120 320 218 141 116 217 208 275 335 15 33 59
35 130 7 l68 -27 90 51 c64 36 98 63 121 95 17 24 70 81 117 127 48 46 93 98
101 117 23 53 8 130 -38 202 -58 90 -58 90 66 190 230 184 454 441 608 698 48
79 87 146 87 149 0 2 15 37 34 76 49 101 91 203 110 261 8 28 22 73 31 100 22
69 58 226 86 370 21 108 23 147 23 400 0 246 -3 296 -23 410 -34 190 -86 385
-141 525 -12 30 -29 73 -37 95 -8 21 -20 51 -28 65 -7 14 -26 52 -41 85 -15
33 -42 83 -59 110 -18 28 -52 84 -75 125 -24 41 -60 98 -82 125 -136 177 -177
224 -303 348 -77 77 -169 160 -205 185 -36 26 -85 63 -110 83 -51 41 -230 152
-316 197 -150 77 -275 127 -449 181 -135 42 -172 51 -270 67 -49 8 -103 19
-120 25 -32 11 -328 29 -435 27 -36 -1 -121 -4 -190 -8z m600 -365 c10 -12 10
-22 3 -38 -14 -31 -104 -54 -146 -38 -47 18 -24 42 73 77 46 17 55 17 70 -1z
m-790 -250 c10 -13 8 -40 -14 -148 -15 -72 -30 -142 -32 -155 -5 -23 -51 -58
-92 -68 -12 -4 -37 1 -56 10 -19 9 -39 16 -46 16 -6 0 -35 11 -65 25 -56 25
-105 81 -105 120 0 30 56 122 86 142 32 20 225 71 275 72 21 1 42 -5 49 -14z
m1307 -47 c38 -26 75 -109 77 -173 1 -36 -1 -40 -26 -43 -30 -4 -85 46 -138
125 -36 53 -38 77 -8 97 31 22 56 20 95 -6z m-248 -23 c26 -13 91 -102 91
-124 0 -4 9 -18 20 -31 32 -37 34 -65 10 -115 -29 -59 -49 -70 -106 -56 -73
19 -137 62 -159 108 -11 23 -24 45 -28 50 -5 4 -70 10 -145 13 -129 5 -137 6
-140 26 -3 24 20 38 93 58 49 14 97 32 200 75 55 23 115 22 164 -4z m54 -404
c143 -9 152 -15 152 -99 0 -31 -9 -88 -19 -127 -11 -38 -25 -94 -33 -122 -8
-32 -21 -57 -33 -63 -11 -6 -111 -15 -223 -20 -111 -5 -260 -15 -330 -21 -71
-6 -131 -9 -134 -6 -22 23 -36 453 -15 466 13 8 485 3 635 -8z m-918 -3 c17
-1 48 2 70 6 28 5 45 3 59 -7 18 -13 18 -22 7 -233 -11 -183 -15 -221 -29
-232 -14 -11 -66 -12 -272 -7 -140 4 -263 11 -272 16 -30 16 -32 47 -3 85 30
39 27 64 -6 64 -44 0 -131 34 -147 58 -13 20 -13 36 -4 114 15 120 26 136 99
141 53 4 425 0 498 -5z m-1087 -51 c12 -13 28 -49 34 -79 10 -49 9 -59 -5 -82
-22 -32 -64 -55 -119 -62 -36 -5 -46 -2 -63 16 -28 30 -25 96 7 157 37 73 103
96 146 50z m428 -537 c70 -68 87 -80 116 -80 26 0 42 9 73 40 l39 40 283 0
c259 0 283 -1 291 -17 15 -29 21 -521 7 -533 -6 -5 -135 -14 -286 -20 -151 -6
-368 -15 -484 -20 -335 -15 -358 -14 -393 15 -36 30 -58 99 -43 137 13 34 53
70 115 104 77 41 131 89 151 133 15 35 16 49 6 116 -19 128 -12 165 28 165 8
0 52 -36 97 -80z m1833 24 c43 -9 56 -35 36 -73 -8 -17 -15 -39 -15 -49 0 -11
-9 -40 -20 -64 -11 -25 -23 -77 -26 -116 -6 -66 -5 -74 25 -132 19 -35 33 -79
34 -102 2 -38 -1 -42 -28 -50 -45 -14 -877 1 -891 15 -18 18 -29 521 -12 534
8 6 126 14 278 18 146 4 306 11 355 15 125 10 227 11 264 4z m651 -212 c19
-16 22 -28 24 -95 2 -118 4 -119 204 -118 l160 2 22 -28 c25 -32 50 -88 50
-113 0 -29 -35 -51 -96 -60 -33 -5 -82 -13 -111 -19 -29 -6 -102 -11 -164 -12
-124 -1 -120 -3 -172 77 -26 40 -43 53 -87 70 -100 40 -110 46 -125 74 -13 25
-12 34 6 89 25 74 60 104 151 130 82 24 111 25 138 3z m-4047 -336 c3 -7 8
-35 12 -62 4 -27 13 -59 21 -71 18 -29 18 -49 -2 -57 -29 -11 -54 -6 -75 15
-19 19 -21 29 -15 89 3 38 9 75 12 84 8 20 40 21 47 2z m3254 -178 c24 -19 14
-56 -30 -110 -67 -83 -84 -134 -92 -276 -10 -160 2 -152 -215 -141 -91 5 -219
10 -285 11 -68 1 -123 7 -127 13 -4 5 -8 120 -8 256 0 182 3 248 13 258 10 11
80 12 372 7 228 -5 364 -11 372 -18z m-949 -25 c20 -17 21 -31 24 -245 2 -146
-1 -231 -7 -237 -7 -7 -189 -8 -570 -3 -531 7 -560 8 -563 25 -2 10 5 28 15
39 16 18 18 37 15 199 -3 203 -9 188 93 210 41 9 190 15 470 19 226 3 431 7
456 8 33 1 53 -3 67 -15z m-1318 -44 c7 -23 8 -64 4 -95 -4 -32 -1 -80 7 -119
11 -57 11 -69 -3 -98 -18 -38 -65 -62 -102 -53 -32 8 -40 33 -21 63 34 51 47
109 49 203 2 96 15 140 41 140 8 0 19 -17 25 -41z m-375 -33 c37 -16 36 -13
55 -141 18 -117 18 -117 -12 -134 -24 -14 -34 -14 -102 3 -49 13 -90 17 -120
13 -38 -6 -50 -3 -66 13 -25 25 -25 28 1 139 15 66 27 95 42 106 28 20 156 20
202 1z m-483 -378 c3 -7 0 -37 -5 -67 -13 -72 9 -323 34 -406 10 -33 19 -70
19 -81 0 -12 8 -48 19 -80 24 -77 33 -208 15 -232 -16 -22 -23 -15 -72 83 -62
125 -103 233 -122 323 -5 23 -14 50 -19 60 -8 16 -31 95 -52 185 -15 60 26
131 104 185 66 45 73 48 79 30z m307 -57 c55 -29 124 -100 154 -160 54 -106
144 -188 225 -206 53 -11 64 -39 52 -126 -16 -113 -52 -207 -91 -238 -48 -38
-136 -79 -196 -92 -70 -16 -121 6 -166 70 -40 57 -53 106 -68 247 -12 121 -9
491 4 512 12 17 42 15 86 -7z m1889 -93 c18 -18 17 -558 0 -580 -10 -13 -49
-20 -171 -31 -88 -8 -169 -12 -180 -9 -31 8 -84 42 -153 99 -57 47 -277 215
-341 260 -44 31 -148 73 -181 73 -16 0 -44 10 -63 23 -29 20 -34 29 -37 69 -3
40 0 49 19 59 14 7 112 15 263 21 133 5 286 13 341 17 169 13 489 13 503 -1z
m749 -5 c12 -7 25 -27 29 -45 7 -33 11 -43 55 -148 31 -73 83 -142 158 -212
47 -45 69 -58 94 -59 59 -1 82 -9 105 -35 25 -28 29 -71 8 -99 -12 -17 -34
-18 -512 -12 -274 3 -507 9 -517 12 -25 10 -31 48 -18 113 7 31 15 149 18 262
3 113 10 213 15 223 9 17 26 18 276 15 189 -2 273 -7 289 -15z m317 -721 c31
-5 53 -14 60 -25 9 -15 4 -23 -31 -53 -47 -39 -52 -58 -57 -201 -1 -51 -7 -87
-16 -98 -12 -15 -51 -16 -439 -9 -336 5 -431 9 -448 20 -22 14 -22 16 -16 186
3 103 10 179 17 187 9 12 78 13 446 7 239 -4 457 -11 484 -14z m-2527 -129
c16 -16 46 -53 67 -83 22 -30 50 -67 64 -82 13 -14 21 -31 18 -37 -10 -16
-142 -14 -174 3 -15 8 -58 17 -97 21 -146 13 -165 26 -165 110 l0 53 58 20
c35 13 85 21 128 21 65 1 75 -2 101 -26z m2972 13 c10 -11 9 -21 -3 -45 -18
-34 -21 -77 -6 -86 6 -3 10 -20 10 -36 0 -25 -6 -33 -35 -45 -46 -19 -129 -19
-145 1 -23 28 3 163 42 213 15 17 122 16 137 -2z m-2660 -392 c21 -27 22 -30
41 -103 8 -32 28 -62 71 -106 80 -83 109 -156 74 -185 -21 -17 -302 -42 -326
-29 -22 11 -25 50 -7 79 16 25 -4 64 -52 98 -84 61 -101 119 -58 191 46 77 52
81 149 81 82 0 89 -2 108 -26z m2540 -20 c26 -18 25 -43 -2 -124 -24 -71 -55
-172 -61 -202 -11 -47 -31 -58 -110 -58 -45 0 -79 5 -91 14 -22 16 -20 23 67
199 32 65 58 125 58 132 0 22 50 55 84 55 17 0 42 -7 55 -16z m-686 -14 c162
0 188 -2 194 -16 6 -17 -70 -200 -126 -302 -20 -36 -46 -69 -58 -74 -21 -10
-492 6 -541 19 -33 8 -36 41 -18 158 9 57 16 123 16 146 0 26 7 50 18 62 16
18 26 19 172 13 85 -3 240 -6 343 -6z"/>
<path d="M2925 12052 c-37 -26 -195 -260 -195 -288 0 -33 44 -104 111 -180 72
-81 107 -131 138 -196 20 -42 21 -52 11 -85 -24 -74 -63 -89 -115 -44 -11 10
-51 40 -90 66 -38 27 -74 53 -80 57 -18 14 -141 104 -152 111 -6 4 -18 4 -27
1 -25 -10 -226 -284 -226 -308 0 -6 15 -21 33 -34 17 -13 84 -61 147 -107 110
-81 145 -106 246 -177 25 -18 67 -50 94 -70 26 -20 79 -59 117 -85 91 -63 257
-184 343 -250 38 -29 77 -53 87 -53 10 0 28 15 41 33 13 17 61 83 108 146 46
63 84 120 84 127 0 14 -144 128 -294 232 -134 93 -142 115 -67 187 26 24 41
30 94 33 63 4 64 4 257 -76 110 -45 134 -52 183 -52 38 0 61 5 74 18 28 24 93
108 135 173 20 30 44 61 52 68 29 25 19 50 -21 56 -52 8 -58 10 -138 40 -38
15 -86 31 -105 36 -19 6 -57 19 -85 29 -99 36 -191 60 -229 60 -22 0 -62 -11
-90 -24 -94 -44 -96 -43 -96 5 0 65 -36 149 -102 235 -129 171 -166 221 -192
266 -31 53 -38 60 -51 50z"/>
<path d="M12755 11954 c-11 -3 -36 -12 -55 -21 -149 -67 -214 -123 -266 -228
-36 -73 -37 -76 -32 -165 4 -60 2 -93 -6 -99 -16 -13 -157 -39 -256 -46 -47
-4 -110 -13 -140 -21 -30 -8 -75 -14 -101 -14 -53 0 -79 -7 -79 -22 0 -11 77
-122 172 -245 63 -84 75 -91 121 -74 14 5 60 14 102 20 43 6 98 18 122 26 24
8 59 15 78 15 19 0 65 10 101 22 l67 22 33 -37 c19 -20 34 -45 34 -55 0 -17
-46 -54 -305 -245 -46 -34 -65 -54 -65 -70 0 -23 183 -282 212 -300 16 -11 50
11 298 194 92 68 588 426 657 474 79 55 123 95 123 110 0 12 -41 74 -120 181
-19 26 -83 113 -142 193 -129 175 -213 276 -252 304 -75 54 -140 79 -211 83
-38 1 -79 1 -90 -2z m193 -417 c35 -27 142 -168 142 -189 0 -17 -166 -148
-189 -148 -4 0 -20 17 -35 38 -122 167 -134 216 -67 283 47 48 98 53 149 16z"/>
<path d="M2007 9223 c-4 -3 -7 -19 -7 -35 0 -16 -7 -42 -15 -57 -8 -16 -19
-46 -24 -67 -6 -22 -26 -85 -46 -142 -19 -57 -35 -110 -35 -117 0 -8 -6 -29
-14 -47 -8 -18 -33 -93 -57 -165 -23 -73 -47 -137 -54 -143 -7 -6 -170 -11
-426 -12 -358 -3 -414 -5 -416 -18 -2 -9 13 -24 34 -37 21 -11 90 -59 153
-106 167 -124 202 -149 335 -244 131 -95 157 -120 148 -143 -3 -8 -10 -28 -16
-45 -5 -16 -18 -50 -27 -75 -10 -25 -22 -63 -28 -85 -5 -22 -22 -71 -37 -110
-15 -38 -30 -88 -35 -110 -11 -50 -77 -249 -97 -292 -15 -32 -12 -63 6 -63 5
0 31 17 58 38 26 21 98 73 158 117 163 117 344 249 397 290 25 19 54 35 63 35
18 0 131 -76 330 -224 72 -53 163 -120 203 -149 41 -28 86 -62 102 -74 59 -48
78 -16 40 72 -11 26 -20 55 -20 66 0 10 -8 38 -19 61 -10 24 -29 77 -41 118
-21 71 -34 110 -74 225 -10 28 -22 68 -27 90 -6 22 -17 50 -25 62 -17 27 -18
88 -1 103 12 10 87 63 138 98 14 9 114 82 223 162 108 80 221 160 249 177 29
18 52 38 52 45 0 10 -90 13 -419 15 -331 2 -422 5 -433 16 -7 7 -19 35 -27 62
-8 28 -19 66 -26 85 -36 103 -48 139 -58 175 -5 22 -23 78 -40 125 -44 129
-61 180 -76 232 -20 72 -50 111 -69 91z"/>
<path d="M13823 9208 c-4 -7 -15 -38 -24 -68 -9 -30 -22 -70 -28 -87 -28 -84
-34 -102 -51 -158 -20 -66 -33 -104 -61 -180 -11 -28 -19 -58 -19 -67 0 -10
-9 -37 -19 -60 -11 -24 -23 -59 -26 -79 -11 -71 5 -68 -449 -69 -225 -1 -415
-4 -422 -7 -21 -8 -17 -21 14 -38 60 -34 179 -119 475 -338 193 -143 210 -163
172 -201 -9 -8 -20 -34 -25 -58 -10 -50 -46 -155 -61 -181 -5 -10 -14 -37 -19
-60 -5 -23 -16 -64 -25 -92 -10 -27 -22 -63 -27 -80 -6 -16 -16 -50 -24 -75
-7 -25 -23 -72 -34 -105 -26 -76 -24 -100 7 -82 35 19 136 92 318 226 94 70
189 140 212 156 24 17 60 42 80 57 21 15 46 27 56 28 9 0 59 -30 110 -68 50
-37 102 -74 114 -82 33 -23 342 -249 392 -287 38 -28 81 -44 81 -28 0 13 -30
115 -42 145 -23 54 -58 163 -58 180 0 8 -9 32 -20 53 -11 20 -20 46 -20 58 0
11 -8 41 -19 67 -29 75 -83 235 -87 262 -6 33 6 46 96 109 41 29 102 73 135
97 33 25 87 64 121 87 34 23 87 62 120 87 72 56 88 66 152 108 55 36 62 46 36
56 -9 3 -197 6 -419 6 -451 0 -425 -4 -446 73 -6 23 -19 65 -30 92 -10 28 -19
59 -19 70 -1 11 -9 38 -20 60 -11 22 -19 48 -20 58 0 10 -8 39 -18 65 -29 74
-62 176 -62 192 0 8 -7 29 -16 45 -9 17 -21 50 -28 75 -11 46 -36 64 -53 38z"/>
<path d="M2889 5816 c-2 -2 -146 -9 -319 -16 -173 -6 -360 -16 -415 -22 -55
-6 -205 -13 -334 -17 -206 -5 -235 -8 -245 -23 -8 -13 -7 -26 3 -50 7 -18 17
-51 22 -73 6 -21 14 -45 20 -51 5 -7 15 -31 22 -55 18 -63 44 -73 149 -58 153
23 146 28 209 -150 10 -30 23 -59 29 -66 13 -15 23 -117 13 -131 -4 -6 -39
-32 -78 -58 -38 -27 -80 -58 -92 -69 -24 -21 -30 -56 -13 -73 5 -5 16 -30 24
-54 8 -25 24 -70 36 -100 12 -30 29 -76 37 -102 19 -61 42 -63 110 -10 26 21
131 101 233 179 102 77 235 177 295 224 61 46 166 125 235 176 69 52 156 119
193 149 l69 56 -7 47 c-4 25 -14 59 -22 74 -8 16 -21 48 -28 71 -55 167 -78
206 -120 206 -12 0 -24 -2 -26 -4z m-274 -313 c0 -7 -22 -24 -49 -38 -50 -27
-60 -33 -158 -110 -31 -25 -66 -45 -77 -45 -27 0 -51 26 -51 57 0 14 -10 43
-22 64 -12 21 -19 41 -16 45 33 33 373 57 373 27z"/>
<path d="M12832 5578 c-60 -123 -156 -317 -212 -433 -56 -115 -110 -226 -121
-246 -40 -77 -42 -76 189 -189 114 -56 250 -122 302 -147 95 -45 114 -55 148
-72 9 -6 94 -47 187 -92 94 -44 205 -98 248 -120 43 -21 84 -36 91 -33 8 3 51
78 95 166 78 155 81 162 66 185 -9 13 -24 27 -33 29 -9 3 -91 42 -182 86 -91
44 -226 110 -300 145 -273 131 -374 186 -378 206 -4 21 85 201 115 234 l23 24
37 -20 c21 -11 139 -70 263 -130 124 -60 305 -148 403 -195 98 -48 187 -86
199 -84 16 2 39 39 99 158 43 85 79 160 79 167 0 13 -56 63 -71 63 -6 0 -115
51 -242 114 -784 385 -829 406 -861 406 l-34 0 -110 -222z"/>
<path d="M3155 5106 c-38 -23 -86 -52 -106 -64 -54 -33 -55 -56 -9 -130 22
-35 40 -67 40 -71 0 -4 9 -16 20 -26 33 -30 24 -51 -39 -95 -33 -22 -64 -40
-69 -40 -5 0 -15 -7 -23 -16 -7 -9 -27 -23 -45 -32 -32 -17 -107 -63 -276
-171 -49 -31 -109 -69 -135 -85 -147 -91 -243 -159 -243 -173 0 -13 48 -97
115 -199 11 -17 31 -49 45 -72 29 -48 40 -54 68 -39 43 24 280 169 377 232 55
36 107 68 115 73 8 4 54 33 102 65 48 31 90 57 93 57 3 0 37 21 75 46 39 25
76 44 84 41 7 -3 43 -51 80 -106 73 -111 82 -116 140 -78 31 20 138 86 176
107 20 12 -7 63 -177 332 -76 119 -169 267 -208 328 -86 137 -103 160 -118
159 -7 0 -43 -19 -82 -43z"/>
<path d="M12283 4593 c-119 -135 -348 -398 -506 -580 -38 -44 -62 -81 -62 -96
0 -23 26 -49 215 -209 47 -39 126 -108 175 -153 50 -44 122 -107 160 -140 39
-33 108 -94 155 -135 47 -42 129 -114 183 -159 l98 -83 75 78 c93 98 184 208
184 221 0 11 -148 149 -240 223 -30 25 -116 99 -190 165 -74 66 -179 158 -233
203 -53 46 -97 87 -97 91 0 5 10 19 21 32 12 13 37 44 57 69 57 71 105 120
119 120 11 0 111 -84 327 -275 147 -130 378 -329 412 -354 22 -16 37 -20 48
-14 13 7 189 199 234 255 20 24 6 42 -96 131 -52 45 -137 118 -187 162 -649
564 -686 595 -706 595 -9 0 -75 -66 -146 -147z"/>
<path d="M3810 4172 c-30 -26 -90 -81 -135 -123 -44 -42 -120 -111 -170 -154
-49 -43 -103 -89 -120 -103 -16 -15 -72 -54 -123 -89 -75 -50 -103 -63 -148
-69 -48 -6 -61 -3 -105 20 -28 14 -58 26 -66 26 -23 0 -193 -170 -193 -193 0
-53 95 -142 200 -186 47 -20 66 -23 135 -18 44 2 98 12 120 22 169 72 301 160
485 319 157 137 170 146 193 146 25 0 126 -106 127 -133 0 -11 -47 -63 -112
-125 -283 -269 -593 -575 -596 -589 -4 -15 256 -285 270 -281 4 2 114 107 245
234 131 126 324 311 428 409 212 200 274 264 275 282 0 23 -619 653 -641 653
-8 -1 -39 -22 -69 -48z"/>
<path d="M11585 3827 c-79 -63 -170 -141 -183 -156 -15 -19 -7 -87 19 -145 9
-23 20 -59 24 -81 3 -22 12 -56 20 -75 23 -61 53 -164 58 -203 7 -48 -13 -58
-53 -28 -16 11 -32 21 -36 21 -4 0 -98 46 -210 101 l-204 101 -38 -25 c-31
-20 -97 -74 -269 -218 -13 -10 -23 -23 -23 -28 0 -11 49 -51 62 -51 5 0 47
-18 94 -40 47 -22 90 -40 95 -40 6 0 27 -9 47 -20 37 -20 286 -137 432 -202
25 -11 62 -29 82 -39 20 -11 43 -19 51 -19 8 0 33 -14 57 -31 42 -30 42 -32
38 -80 -6 -58 -37 -97 -125 -155 -29 -19 -53 -40 -53 -45 0 -25 157 -209 178
-209 16 0 32 10 138 81 41 28 119 107 147 149 26 40 57 151 57 204 0 58 -23
170 -76 361 -13 50 -29 109 -34 133 -5 24 -13 48 -17 54 -3 7 -14 43 -24 82
-10 39 -27 105 -39 146 -12 41 -28 104 -36 139 -8 35 -19 72 -24 82 -6 10 -17
46 -25 81 -38 163 -47 188 -69 187 -11 0 -39 -14 -61 -32z"/>
<path d="M4867 3295 c-20 -13 -159 -122 -308 -242 -149 -120 -296 -237 -327
-261 -31 -23 -75 -60 -97 -81 -22 -21 -76 -67 -120 -101 -188 -147 -205 -174
-137 -210 20 -11 70 -43 109 -71 54 -38 78 -50 95 -46 13 4 62 40 110 82 48
41 94 75 103 75 8 0 34 -13 57 -30 24 -16 80 -55 126 -87 46 -31 92 -67 102
-81 20 -24 20 -25 0 -57 -11 -18 -20 -42 -20 -54 0 -12 -7 -35 -15 -50 -8 -16
-17 -47 -21 -68 l-6 -40 87 -59 c247 -167 246 -166 266 -91 6 23 19 67 29 97
10 30 28 89 40 130 12 41 31 103 41 138 10 34 28 90 38 125 10 34 29 96 41
137 12 41 30 100 40 130 9 30 27 89 40 130 13 41 31 100 40 130 81 255 82 244
-30 324 -85 61 -232 156 -242 156 -3 0 -22 -11 -41 -25z m-65 -460 c-2 -17
-12 -54 -23 -82 -11 -29 -29 -79 -41 -110 -11 -32 -24 -68 -29 -80 -14 -37
-36 -32 -128 30 -63 42 -56 58 79 176 63 55 122 99 130 98 10 -2 14 -12 12
-32z"/>
<path d="M10335 2944 c-22 -8 -51 -19 -65 -24 -32 -10 -102 -41 -208 -91 -46
-21 -85 -39 -88 -39 -3 0 -70 -31 -150 -70 -80 -38 -150 -70 -155 -70 -5 0
-16 -11 -25 -25 l-17 -26 -22 21 c-27 25 -55 25 -136 1 -35 -11 -84 -22 -108
-26 -24 -4 -59 -14 -77 -21 -18 -8 -48 -14 -66 -14 -18 -1 -51 -8 -73 -16 -22
-9 -69 -20 -105 -25 -36 -6 -85 -16 -110 -23 -25 -8 -71 -19 -102 -26 -32 -6
-66 -19 -77 -28 -19 -16 -19 -20 -5 -82 8 -36 24 -98 34 -137 11 -40 20 -83
20 -95 0 -13 9 -52 20 -86 11 -35 20 -76 20 -90 0 -15 8 -56 19 -92 11 -36 29
-108 40 -160 11 -52 26 -115 32 -140 6 -25 15 -67 21 -95 6 -27 18 -77 28
-110 10 -33 21 -82 24 -109 3 -27 14 -58 23 -68 22 -24 92 -24 174 1 35 10 84
22 109 25 77 12 139 67 100 91 -5 3 -10 24 -10 45 0 22 -6 59 -14 82 -8 24
-17 59 -20 78 -10 53 -46 207 -67 285 -11 39 -19 80 -19 92 0 12 -7 44 -16 70
-10 26 -23 77 -30 113 -7 36 -18 86 -25 112 -13 52 -3 78 31 78 10 0 34 7 53
15 20 8 50 15 67 15 17 0 56 9 87 20 32 11 71 20 88 20 16 0 54 11 84 25 46
22 53 28 48 48 -30 120 -39 179 -29 189 12 12 42 -6 42 -24 0 -6 22 -56 49
-112 27 -55 65 -137 86 -181 20 -44 52 -111 70 -150 18 -38 42 -90 53 -115
152 -333 226 -487 256 -532 29 -44 32 -43 266 71 76 37 96 51 98 70 4 25 -14
70 -109 269 -33 68 -59 129 -59 137 0 17 42 47 116 83 176 83 298 183 329 268
10 27 23 55 28 62 5 7 12 44 15 82 4 59 0 83 -23 152 -15 44 -38 97 -52 117
-33 50 -97 115 -125 128 -13 5 -44 20 -69 32 -57 26 -210 29 -274 5z m60 -324
c51 -32 85 -83 85 -127 0 -32 -7 -46 -38 -76 -43 -42 -167 -108 -188 -100 -20
7 -106 190 -102 215 3 22 20 33 138 86 57 26 66 26 105 2z"/>
<path d="M5587 2865 c-10 -9 -19 -28 -22 -43 -3 -15 -15 -44 -25 -64 -11 -20
-20 -47 -20 -60 0 -13 -7 -33 -15 -44 -8 -12 -19 -39 -24 -60 -12 -49 -47
-149 -67 -191 -7 -17 -14 -38 -14 -48 0 -9 -7 -29 -15 -44 -8 -16 -19 -46 -24
-67 -12 -49 -40 -127 -63 -180 -10 -22 -18 -48 -18 -58 0 -9 -8 -31 -17 -49
-9 -18 -20 -48 -24 -67 -8 -38 -31 -107 -61 -184 -23 -58 -18 -96 15 -96 12 0
46 -11 75 -25 30 -14 62 -25 72 -25 9 0 37 -8 61 -19 53 -23 119 -33 137 -22
7 4 17 23 22 42 11 42 87 267 100 294 5 11 14 38 20 61 5 22 19 49 30 59 18
17 23 17 57 3 49 -20 97 -36 155 -54 81 -26 81 -31 16 -211 -30 -85 -72 -205
-90 -258 -16 -50 2 -82 54 -90 24 -4 62 -16 85 -26 23 -11 48 -19 55 -19 8 0
23 -7 35 -15 11 -8 45 -17 75 -21 61 -7 74 2 88 58 5 18 21 65 35 103 15 39
33 90 41 115 7 25 27 83 44 130 17 47 35 102 41 123 5 21 14 45 19 55 5 9 24
60 40 112 17 52 34 104 39 115 10 21 25 66 72 215 41 129 46 140 65 140 14 0
15 -13 9 -119 l-8 -120 29 -7 c16 -3 54 -12 85 -20 31 -8 70 -14 86 -14 16 0
37 -6 47 -13 16 -12 17 -20 7 -91 -6 -42 -11 -99 -11 -126 0 -27 -9 -88 -20
-135 -11 -47 -20 -118 -20 -158 0 -40 -7 -99 -15 -132 -8 -33 -19 -127 -25
-209 -9 -127 -8 -152 4 -164 9 -10 51 -17 128 -22 62 -5 135 -13 162 -20 80
-18 106 12 106 129 0 25 9 100 20 166 11 66 20 140 20 165 0 25 7 83 15 130 8
47 18 123 21 170 8 124 33 239 55 250 12 7 39 5 81 -4 108 -24 156 -27 171
-12 9 10 16 51 20 123 4 59 9 117 12 129 12 38 -15 50 -127 57 -57 3 -115 10
-129 15 -14 6 -84 15 -154 21 -71 6 -145 16 -164 21 -20 5 -96 14 -170 20 -74
6 -138 13 -143 16 -5 3 -24 -4 -43 -15 -32 -19 -35 -19 -35 -3 0 32 -30 61
-78 76 -26 8 -78 27 -117 41 -144 55 -200 56 -211 7 -3 -15 -14 -45 -25 -68
-10 -23 -19 -49 -19 -59 0 -9 -7 -31 -15 -48 -19 -42 -44 -112 -57 -162 -6
-22 -15 -46 -21 -52 -14 -19 -68 -16 -112 7 -22 11 -47 20 -57 20 -24 0 -106
41 -112 56 -6 15 13 81 54 194 17 47 35 102 41 124 5 21 16 51 24 67 8 15 15
37 15 48 0 24 -41 54 -95 69 -22 6 -78 25 -125 42 -113 42 -133 45 -153 25z"/>
<path d="M7997 1751 c-93 -8 -99 -17 -92 -140 9 -148 12 -160 42 -167 52 -13
433 21 445 40 12 17 9 235 -2 257 -10 18 -22 19 -168 17 -86 0 -188 -4 -225
-7z"/>
</g>
</svg>
